<?xml version="1.0" encoding="UTF-8" standalone="no"?>
<svg
   xmlns:dc="http://purl.org/dc/elements/1.1/"
   xmlns:cc="http://creativecommons.org/ns#"
   xmlns:rdf="http://www.w3.org/1999/02/22-rdf-syntax-ns#"
   xmlns:svg="http://www.w3.org/2000/svg"
   xmlns="http://www.w3.org/2000/svg"
   xmlns:sodipodi="http://sodipodi.sourceforge.net/DTD/sodipodi-0.dtd"
   xmlns:inkscape="http://www.inkscape.org/namespaces/inkscape"
   version="1.1"
   id="svg62"
   width="115.38028"
   height="115.38028"
   viewBox="0 0 115.38028 115.38028"
   sodipodi:docname="pencil.svg"
   inkscape:version="1.0 (4035a4f, 2020-05-01)">
  <metadata
     id="metadata68">
    <rdf:RDF>
      <cc:Work
         rdf:about="">
        <dc:format>image/svg+xml</dc:format>
        <dc:type
           rdf:resource="http://purl.org/dc/dcmitype/StillImage" />
        <dc:title />
      </cc:Work>
    </rdf:RDF>
  </metadata>
  <defs
     id="defs66" />
  <sodipodi:namedview
     inkscape:document-rotation="0"
     pagecolor="#ffffff"
     bordercolor="#666666"
     borderopacity="1"
     objecttolerance="10"
     gridtolerance="10"
     guidetolerance="10"
     inkscape:pageopacity="0"
     inkscape:pageshadow="2"
     inkscape:window-width="1864"
     inkscape:window-height="1043"
     id="namedview64"
     showgrid="false"
     inkscape:zoom="7.1242677"
     inkscape:cx="34.19629"
     inkscape:cy="61.158661"
     inkscape:window-x="3896"
     inkscape:window-y="0"
     inkscape:window-maximized="1"
     inkscape:current-layer="g70" />
  <g
     inkscape:groupmode="layer"
     inkscape:label="Image"
     id="g70">
    <circle
       style="opacity:1;fill:#ffffff;fill-opacity:1"
       id="path4876"
       cx="57.764874"
       cy="57.336315"
       r="43.930313"
       inkscape:label="fondo_blanco" />
    <path
       id="path84"
       d="M 52.25281,115.0343 C 27.1156,112.72179 6.48549,94.069425 1.28349,68.951268 -0.04525,62.535404 -0.04525,53.071994 1.28349,46.65613 6.06796,23.554051 23.41161,6.2103931 46.513692,1.4259228 c 6.415864,-1.32873352 15.879274,-1.32873352 22.295138,0 20.182851,4.1798948 36.15419,18.0184402 43.09817,37.3428832 4.17902,11.629841 4.17902,26.439945 0,38.069786 -6.90568,19.217884 -23.19211,33.369618 -42.872817,37.253388 -5.358806,1.0575 -11.674421,1.41214 -16.781373,0.94232 z M 46.574239,97.068586 c 2.14866,-0.271382 2.243921,-0.348426 3.501535,-2.831968 1.83885,-3.631365 3.061751,-8.851123 3.385951,-14.452417 0.224573,-3.879964 0.422387,-4.878909 1.000298,-5.05138 0.3962,-0.118242 4.391206,-0.937185 8.877787,-1.819876 13.571853,-2.670125 21.59432,-5.646828 26.971515,-10.007657 3.77696,-3.063067 4.896559,-5.413008 5.130821,-10.769154 0.244764,-5.596385 -0.741138,-9.862796 -3.597773,-15.569017 -2.023293,-4.041596 -2.934324,-5.31666 -6.353763,-8.892641 -1.424734,-1.489961 -4.681455,-3.058325 -8.535008,-4.110269 -4.625316,-1.262619 -14.661435,-1.084158 -18.527139,0.329448 -3.740209,1.367713 -8.572489,4.702618 -10.683082,7.372718 -2.193736,2.775282 -4.64395,7.780263 -5.570555,11.378804 -0.752465,2.922254 -2.174545,4.803958 -3.390281,4.486035 -1.449451,-0.379037 -5.759833,6.983243 -6.18159,10.558369 -0.138998,1.178258 -0.457656,2.56864 -0.708128,3.089735 -0.330617,0.687833 -0.25742,1.530596 0.267128,3.075614 0.397394,1.170497 0.623217,2.28887 0.501829,2.485278 -0.121386,0.196408 0.176182,0.716282 0.661263,1.155272 1.45459,1.316386 1.547935,3.457591 0.399055,9.153812 -0.58428,2.896897 -1.199386,5.369127 -1.366903,5.49385 -0.291748,0.217212 -0.349806,0.704266 -0.466351,3.912302 -0.033,0.908367 0.468282,2.245828 1.366185,3.645093 0.780072,1.215635 1.418313,2.531691 1.418313,2.92457 0,0.417091 0.658113,0.931515 1.581615,1.2363 0.869889,0.287089 1.467362,0.706844 1.32772,0.932791 -0.372526,0.602758 0.387595,1.746934 1.634153,2.459813 0.720532,0.412056 1.778173,0.533656 3.118484,0.358535 1.115493,-0.145744 3.022107,-0.390526 4.236921,-0.54396 z m 8.900363,-45.70678 c -0.417771,-0.806238 -0.312843,-1.54985 0.553731,-3.924304 1.014093,-2.778662 1.203979,-2.999231 3.686093,-4.28169 2.421521,-1.251154 2.955777,-1.349242 7.155119,-1.313661 3.52795,0.02989 5.090014,0.256099 7.017068,1.016159 3.677025,1.450278 3.981039,1.692763 3.154929,2.516404 -0.89234,0.889672 -11.884511,4.636332 -16.20251,5.522596 -1.87172,0.384167 -3.728441,0.869652 -4.126057,1.078856 -0.52416,0.275785 -0.864654,0.106866 -1.238373,-0.61436 z"
       style="fill:#f18d00;fill-opacity:1;stroke-width:0.450704"
       inkscape:label="fondo" />
    <path
       id="path78"
       d="m 41.338018,99.191741 c -0.429805,-0.336218 -1.134491,-0.617907 -1.56597,-0.625992 -0.451299,-0.0082 -0.784508,-0.367793 -0.784508,-0.846039 0,-0.64156 0.59463,-0.957896 2.604652,-1.385651 1.432559,-0.30487 3.228208,-0.554296 3.99033,-0.554296 1.120003,0 1.571302,-0.324157 2.353841,-1.690684 2.230932,-3.895811 4.046568,-12.285877 4.050321,-18.716578 8.97e-4,-1.662179 0.182862,-2.216921 0.785772,-2.396524 0.431479,-0.12853 4.516521,-0.993966 9.077872,-1.923185 13.406513,-2.731127 21.300994,-5.761491 26.647397,-10.228837 3.719099,-3.107608 4.797891,-5.433058 5.07775,-10.945649 0.269068,-5.300125 -0.605972,-9.801135 -2.838604,-14.601137 -0.861079,-1.851259 -1.483947,-3.450056 -1.384144,-3.552882 0.398786,-0.41088 5.282433,10.439846 5.962687,13.248188 0.963532,3.977813 0.950881,9.773766 -0.02797,12.810147 -1.799032,5.58063 -10.125426,11.030746 -21.372259,13.989398 -3.234855,0.85098 -18.524264,4.136697 -19.283618,4.144082 -0.148639,0.0014 -0.39285,2.444842 -0.54268,5.42977 -0.316969,6.314444 -1.141137,10.195272 -3.032145,14.277679 -1.2521,2.70309 -1.467087,2.927512 -2.804471,2.927512 -0.796633,0 -2.502407,0.281688 -3.790611,0.625983 -1.944796,0.519771 -2.474779,0.522261 -3.123652,0.01465 z"
       style="fill:#864f00;fill-opacity:1;stroke-width:0.455036"
       inkscape:label="sombra" />
  </g>
</svg>
