<svg width="1024" height="1024" viewBox="0 0 1024 1024" fill="none" xmlns="http://www.w3.org/2000/svg">
<g clip-path="url(#clip0_8991_11167)">
<path d="M243.997 0.415625H777.868C842.471 0.415625 904.429 26.1333 950.111 71.9113C995.793 117.689 1021.46 179.778 1021.46 244.518V779.513C1021.46 844.253 995.793 906.342 950.111 952.12C904.429 997.898 842.471 1023.62 777.868 1023.62H243.997C179.393 1023.62 117.435 997.898 71.7536 952.12C26.0718 906.342 0.407813 844.253 0.407813 779.513V244.518C0.407813 179.778 26.0718 117.689 71.7536 71.9113C117.435 26.1333 179.393 0.415625 243.997 0.415625Z" fill="white" stroke="#999999" stroke-width="0.8"/>
<path fill-rule="evenodd" clip-rule="evenodd" d="M803.867 327.166L748.831 201.412C742.201 186.361 731.354 173.562 717.607 164.569C703.859 155.576 687.802 150.776 671.385 150.75H350.13C333.717 150.793 317.665 155.578 303.897 164.531C290.129 173.485 279.229 186.228 272.506 201.232L217.648 326.986C209.916 344.255 208.334 363.661 213.167 381.959L275.015 629.875C279.597 648.281 290.218 664.611 305.173 676.242C320.128 687.873 338.55 694.13 357.48 694.009H664.573C683.487 694.067 701.878 687.786 716.821 676.165C731.763 664.544 742.399 648.25 747.038 629.875L808.707 381.959C813.519 363.688 811.807 344.306 803.867 327.166ZM739.867 353.215H616.887C613.679 353.33 610.622 354.607 608.281 356.808C605.931 358.934 604.514 361.904 604.337 365.072L589.996 570.231C589.842 573.939 588.954 577.58 587.384 580.941C585.815 584.303 583.595 587.318 580.853 589.813C575.515 594.988 568.381 597.886 560.954 597.897H460.562C453.076 597.914 445.877 595.015 440.483 589.813C435.084 584.672 431.819 577.679 431.34 570.231L416.819 366.509C416.717 363.309 415.365 360.277 413.055 358.066C410.715 355.886 407.644 354.668 404.45 354.652H281.29C279.434 354.577 277.609 354.151 275.912 353.395C274.275 352.526 272.91 351.22 271.968 349.622C270.901 348.07 270.224 346.283 269.996 344.412C269.548 342.644 269.548 340.791 269.996 339.023L316.786 216.861C319.513 208.901 324.652 201.993 331.486 197.1C338.292 192.081 346.521 189.374 354.971 189.375H665.648C674.016 189.542 682.138 192.234 688.954 197.1C695.837 201.983 701.037 208.888 703.833 216.861L750.444 339.023C750.894 340.669 750.894 342.407 750.444 344.053C750.066 345.745 749.333 347.338 748.293 348.724C747.252 350.029 745.975 351.126 744.528 351.958C743.081 352.703 741.492 353.132 739.867 353.215Z" fill="url(#paint0_linear_8991_11167)"/>
<path d="M979.541 764.794H42.1289C30.9556 764.794 20.2399 760.346 12.3393 752.429C4.43856 744.512 0 733.773 0 722.577V779.525C-0.0235534 811.625 6.26539 843.416 18.5074 873.079C30.7494 902.742 48.7046 929.697 71.3467 952.404C93.9889 975.11 120.874 993.123 150.466 1005.41C180.058 1017.7 211.777 1024.03 243.81 1024.03H777.86C842.57 1024.03 904.629 998.268 950.386 952.415C996.143 906.562 1021.85 844.372 1021.85 779.525V722.577C1021.8 733.79 1017.32 744.528 1009.39 752.44C1001.46 760.352 990.73 764.794 979.541 764.794Z" fill="#016FF1"/>
<path d="M264.795 956.833H242.386V884.974H215.137V868.087C218.888 868.545 222.68 868.545 226.431 868.087C229.827 867.408 233.094 866.196 236.112 864.494C239.239 862.564 241.884 859.941 243.842 856.826C245.8 853.712 247.019 850.189 247.406 846.529H265.333L264.795 956.833ZM323.775 901.501C323.775 904.555 323.775 908.328 323.775 912.819C323.966 917.189 324.627 921.526 325.747 925.754C326.744 929.604 328.513 933.211 330.946 936.353C332.25 937.802 333.86 938.94 335.659 939.686C337.458 940.432 339.4 940.766 341.344 940.665C343.318 940.794 345.295 940.473 347.127 939.726C348.958 938.979 350.598 937.826 351.921 936.353C354.479 933.266 356.316 929.644 357.299 925.754C358.42 921.526 359.081 917.189 359.271 912.819C359.271 908.328 359.271 904.555 359.271 901.501C359.271 898.447 359.271 897.19 359.271 894.675C359.537 891.926 359.537 889.159 359.271 886.411C359.07 883.556 358.59 880.728 357.837 877.967C357.183 875.32 356.157 872.78 354.789 870.422C353.454 868.279 351.682 866.443 349.59 865.033C347.225 863.743 344.575 863.068 341.882 863.068C339.189 863.068 336.539 863.743 334.173 865.033C332.191 866.513 330.491 868.339 329.154 870.422C327.848 872.789 326.882 875.329 326.285 877.967C325.558 880.742 325.019 883.563 324.672 886.411C324.672 889.106 324.672 891.98 324.672 894.675L323.775 901.501ZM301.546 901.501C301.332 892.411 302.418 883.336 304.773 874.554C306.355 867.994 309.354 861.862 313.557 856.589C316.87 852.404 321.187 849.128 326.106 847.068C331.111 845.275 336.387 844.363 341.703 844.373C347.02 844.333 352.302 845.246 357.299 847.068C362.325 849.117 366.761 852.389 370.207 856.589C374.41 861.862 377.408 867.994 378.991 874.554C381.345 883.336 382.432 892.411 382.218 901.501C382.414 910.828 381.328 920.137 378.991 929.167C377.326 935.697 374.335 941.812 370.207 947.132C366.75 951.278 362.313 954.489 357.299 956.474C352.337 958.443 347.039 959.42 341.703 959.348C336.369 959.388 331.076 958.413 326.106 956.474C321.199 954.478 316.881 951.263 313.557 947.132C309.428 941.812 306.438 935.697 304.773 929.167C302.436 920.137 301.35 910.828 301.546 901.501ZM399.069 889.106C398.771 883.039 399.498 876.965 401.221 871.141C402.893 866.009 405.441 861.208 408.75 856.948C412.163 852.911 416.457 849.715 421.299 847.607C426.959 845.187 433.075 844.022 439.226 844.193C444.106 844.137 448.958 844.927 453.568 846.529C457.98 847.905 462.067 850.167 465.579 853.176C469.19 856.318 472.072 860.213 474.023 864.589C475.974 868.964 476.947 873.714 476.873 878.506C476.969 883.414 476.117 888.294 474.364 892.878C472.626 896.813 470.197 900.403 467.193 903.477C464.175 906.663 460.807 909.495 457.154 911.921L446.039 919.466C442.238 921.879 438.587 924.518 435.103 927.371C431.453 930.161 428.249 933.493 425.602 937.251H477.59V956.294H396.918C396.484 945.641 400.141 935.225 407.137 927.191C410.378 923.316 414.046 919.82 418.072 916.771C422.375 913.538 426.857 910.484 431.697 907.25C434.108 905.43 436.622 903.75 439.226 902.22C441.92 900.491 444.442 898.505 446.756 896.292C448.907 894.211 450.776 891.855 452.313 889.285C453.921 886.572 454.729 883.457 454.644 880.303C454.932 877.997 454.716 875.656 454.01 873.443C453.303 871.23 452.124 869.198 450.555 867.488C448.985 865.778 447.062 864.431 444.919 863.542C442.777 862.652 440.467 862.241 438.151 862.338C435.237 862.32 432.378 863.13 429.904 864.673C427.708 866.313 425.876 868.393 424.526 870.781C423.145 873.305 422.177 876.035 421.658 878.866C421.102 881.768 420.802 884.713 420.761 887.668L399.069 889.106ZM537.826 874.913L509.501 912.999H537.826V874.913ZM537.826 931.503H490.857V911.023L537.826 846.888H557.725V912.999H573.68V930.964H559.159V956.294H537.826V931.503ZM675.686 944.258C671.826 949.354 666.778 953.425 660.985 956.115C655.874 958.254 650.39 959.353 644.851 959.348C636.932 959.477 629.068 958.011 621.725 955.037C614.968 952.173 608.867 947.955 603.798 942.641C599.111 937.389 595.461 931.292 593.042 924.676C590.487 917.344 589.214 909.626 589.277 901.861C589.202 893.918 590.475 886.021 593.042 878.506C595.499 871.908 599.145 865.819 603.798 860.541C608.793 855.097 614.91 850.806 621.725 847.966C629.03 844.846 636.912 843.315 644.851 843.475C650.517 843.463 656.148 844.373 661.523 846.169C666.799 847.735 671.727 850.296 676.044 853.715C680.544 857.002 684.276 861.232 686.98 866.11C689.877 871.311 691.649 877.065 692.179 882.998H667.977C666.926 877.419 663.942 872.392 659.551 868.805C655.119 865.619 649.766 863.978 644.313 864.134C639.371 863.963 634.475 865.143 630.151 867.548C626.323 869.526 623.102 872.506 620.829 876.171C618.398 879.93 616.582 884.054 615.45 888.387C614.363 893.099 613.821 897.922 613.837 902.759C613.832 907.417 614.374 912.06 615.45 916.592C616.651 920.788 618.464 924.783 620.829 928.449C623.205 932.027 626.402 934.984 630.151 937.072C634.522 939.335 639.395 940.447 644.313 940.306C651.392 940.395 658.22 937.684 663.316 932.76C668.062 927.949 670.87 921.552 671.204 914.795H646.285V896.83H693.254V957.372H677.658L675.686 944.258ZM738.431 890.363H763.35C767.188 890.467 770.959 889.334 774.106 887.129C775.591 885.895 776.758 884.319 777.507 882.537C778.256 880.754 778.565 878.817 778.408 876.889C778.439 874.651 777.948 872.436 776.974 870.422C776.06 868.816 774.768 867.459 773.21 866.47C771.476 865.551 769.595 864.943 767.652 864.673C765.565 864.477 763.465 864.477 761.378 864.673H737.893L738.431 890.363ZM713.153 844.373H765.859C770.789 844.307 775.713 844.728 780.56 845.63C784.601 846.503 788.436 848.15 791.854 850.481C795.006 852.544 797.496 855.477 799.025 858.925C800.932 863.025 801.853 867.517 801.714 872.039C801.936 877.069 800.555 882.04 797.77 886.231C794.887 890.283 790.992 893.505 786.476 895.573C792.708 897.159 798.173 900.916 801.893 906.172C805.481 911.458 807.301 917.748 807.092 924.137C807.156 929.308 805.988 934.42 803.686 939.048C801.499 943.04 798.433 946.48 794.722 949.108C790.854 951.768 786.544 953.715 781.994 954.857C777.254 956.095 772.371 956.699 767.473 956.654H713.691L713.153 844.373ZM737.893 937.431H764.246C766.508 937.706 768.796 937.706 771.058 937.431C773.135 936.951 775.129 936.164 776.974 935.096C778.596 933.95 779.893 932.403 780.739 930.604C781.898 928.328 782.453 925.792 782.352 923.239C782.573 920.964 782.249 918.668 781.407 916.544C780.566 914.419 779.23 912.526 777.512 911.023C773.757 908.342 769.208 907.013 764.604 907.25H737.893V937.431Z" fill="white"/>
</g>
<defs>
<linearGradient id="paint0_linear_8991_11167" x1="511.154" y1="693.966" x2="511.154" y2="150.807" gradientUnits="userSpaceOnUse">
<stop stop-color="#0066EF"/>
<stop offset="1" stop-color="#00B2FF"/>
</linearGradient>
<clipPath id="clip0_8991_11167">
<rect width="1024" height="1024" fill="white"/>
</clipPath>
</defs>
</svg>
