<?xml version="1.0" encoding="UTF-8" standalone="no"?>
<svg
   xmlns:dc="http://purl.org/dc/elements/1.1/"
   xmlns:cc="http://creativecommons.org/ns#"
   xmlns:rdf="http://www.w3.org/1999/02/22-rdf-syntax-ns#"
   xmlns:svg="http://www.w3.org/2000/svg"
   xmlns="http://www.w3.org/2000/svg"
   xmlns:xlink="http://www.w3.org/1999/xlink"
   xmlns:sodipodi="http://sodipodi.sourceforge.net/DTD/sodipodi-0.dtd"
   xmlns:inkscape="http://www.inkscape.org/namespaces/inkscape"
   version="1.1"
   id="Layer_1"
   x="0px"
   y="0px"
   viewBox="0 0 523.79999 523.79999"
   xml:space="preserve"
   sodipodi:docname="zoom.svg"
   width="523.79999"
   height="523.79999"
   inkscape:version="1.0.1 (3bc2e81, 2020-09-07)"><metadata
   id="metadata57"><rdf:RDF><cc:Work
       rdf:about=""><dc:format>image/svg+xml</dc:format><dc:type
         rdf:resource="http://purl.org/dc/dcmitype/StillImage" /><dc:title></dc:title></cc:Work></rdf:RDF></metadata><defs
   id="defs55" /><sodipodi:namedview
   pagecolor="#ffffff"
   bordercolor="#666666"
   borderopacity="1"
   objecttolerance="10"
   gridtolerance="10"
   guidetolerance="10"
   inkscape:pageopacity="0"
   inkscape:pageshadow="2"
   inkscape:window-width="1864"
   inkscape:window-height="1016"
   id="namedview53"
   showgrid="false"
   inkscape:snap-page="false"
   inkscape:zoom="1.0083637"
   inkscape:cx="169.44549"
   inkscape:cy="338.79935"
   inkscape:window-x="3896"
   inkscape:window-y="27"
   inkscape:window-maximized="1"
   inkscape:current-layer="Layer_1" />
<style
   type="text/css"
   id="style2">
	.st0{clip-path:url(#SVGID_2_);}
	.st1{fill:#E5E5E4;}
	.st2{clip-path:url(#SVGID_4_);}
	.st3{fill:#FFFFFF;}
	.st4{clip-path:url(#SVGID_6_);}
	.st5{fill:#4A8CFF;}
	.st6{clip-path:url(#SVGID_8_);}
</style>
<g
   id="g14"
   transform="translate(657.79999,231.79999)">
	<defs
   id="defs5">
		<circle
   id="SVGID_1_"
   cx="-395.89999"
   cy="30.1"
   r="261.89999" />
	</defs>
	<clipPath
   id="SVGID_2_">
		<use
   xlink:href="#SVGID_1_"
   style="overflow:visible"
   id="use7"
   x="0"
   y="0"
   width="100%"
   height="100%" />
	</clipPath>
	<g
   class="st0"
   clip-path="url(#SVGID_2_)"
   id="g12">
		<path
   class="st1"
   d="m -670.7,-244.7 h 549.5 v 549.5 h -549.5 z"
   id="path10" />
	</g>
</g>
<g
   id="g26"
   transform="translate(657.79999,231.79999)">
	<defs
   id="defs17">
		<circle
   id="SVGID_3_"
   cx="-395.89999"
   cy="30.1"
   r="256.79999" />
	</defs>
	<clipPath
   id="SVGID_4_">
		<use
   xlink:href="#SVGID_3_"
   style="overflow:visible"
   id="use19"
   x="0"
   y="0"
   width="100%"
   height="100%" />
	</clipPath>
	<g
   class="st2"
   clip-path="url(#SVGID_4_)"
   id="g24">
		<path
   class="st3"
   d="m -665.5,-239.5 h 539.3 v 539.3 h -539.3 z"
   id="path22" />
	</g>
</g>
<g
   id="g38"
   transform="translate(657.79999,231.79999)">
	<defs
   id="defs29">
		<circle
   id="SVGID_5_"
   cx="-395.89999"
   cy="30.1"
   r="236.2" />
	</defs>
	<clipPath
   id="SVGID_6_">
		<use
   xlink:href="#SVGID_5_"
   style="overflow:visible"
   id="use31"
   x="0"
   y="0"
   width="100%"
   height="100%" />
	</clipPath>
	<g
   class="st4"
   clip-path="url(#SVGID_6_)"
   id="g36">
		<path
   class="st5"
   d="m -645,-219 h 498.2 V 279.2 H -645 Z"
   id="path34" />
	</g>
</g>
<g
   id="g50"
   transform="translate(657.79999,231.79999)">
	<defs
   id="defs41">
		<path
   id="SVGID_7_"
   d="m -324,-0.6 66.8,-48.8 c 5.8,-4.8 10.3,-3.6 10.3,5.1 v 148.8 c 0,9.9 -5.5,8.7 -10.3,5.1 L -324,60.9 Z m -226,-43.3 v 111 c 0.1,25.1 20.6,45.3 45.6,45.2 h 161.8 c 4.6,0 8.3,-3.7 8.3,-8.2 v -111 c -0.1,-25.1 -20.6,-45.3 -45.6,-45.2 h -161.8 c -4.6,0 -8.3,3.7 -8.3,8.2 z" />
	</defs>
	<clipPath
   id="SVGID_8_">
		<use
   xlink:href="#SVGID_7_"
   style="overflow:visible"
   id="use43"
   x="0"
   y="0"
   width="100%"
   height="100%" />
	</clipPath>
	<g
   class="st6"
   clip-path="url(#SVGID_8_)"
   id="g48">
		<path
   class="st3"
   d="m -562.8,-64.9 h 328.7 v 190 h -328.7 z"
   id="path46" />
	</g>
</g>
</svg>
